<svg width="24" height="24" viewBox="0 0 51 51" fill="none" xmlns="http://www.w3.org/2000/svg">
<path d="M0 0H50.3284V50.3284H0V0Z" fill="white" fill-opacity="0.01"/>
<path d="M31.4553 36.1735C31.4553 34.1467 33.0983 32.5037 35.1251 32.5037H42.9889V36.0687C42.9889 38.1533 41.2989 39.8433 39.2143 39.8433H35.1251C33.0983 39.8433 31.4553 38.2003 31.4553 36.1735Z" fill="black" stroke="black" stroke-width="4.19404" stroke-linejoin="round"/>
<path d="M6.29102 40.3675C6.29102 38.3408 7.93403 36.6978 9.9608 36.6978H16.7761V40.2627C16.7761 42.3473 15.0861 44.0373 13.0015 44.0373H9.9608C7.93403 44.0373 6.29102 42.3943 6.29102 40.3675Z" fill="black" stroke="black" stroke-width="4.19404" stroke-linejoin="round"/>
<path d="M16.7761 18.9193L42.9888 12.7131" stroke="black" stroke-width="4.19404" stroke-linecap="round" stroke-linejoin="round"/>
<path d="M16.7761 39.8433V10.485L42.9888 4.19397V35.3267" stroke="black" stroke-width="4.19404" stroke-linecap="round" stroke-linejoin="round"/>
</svg>
