<svg width="124" height="120" viewBox="0 0 124 120" fill="none" xmlns="http://www.w3.org/2000/svg">
<path d="M33.6173 9.17318C37.4486 4.96839 42.758 2.40882 48.4339 2.03037C58.398 1.49327 64.7383 8.24714 65.5779 9.17318C67.9732 6.80115 70.9945 5.16033 74.2883 4.44269C77.5822 3.72505 81.0122 3.96028 84.1772 5.12085C87.3422 6.28141 90.1113 8.31933 92.1604 10.9961C94.2095 13.673 95.4539 16.878 95.7481 20.2362C99.0833 19.5017 102.561 19.7604 105.75 20.9804C108.94 22.2005 111.703 24.3283 113.697 27.101C115.69 29.8737 116.828 33.1698 116.969 36.582C117.111 39.9942 116.249 43.373 114.491 46.301C117.039 47.8342 119.092 50.068 120.406 52.7358C121.719 55.4036 122.238 58.393 121.899 61.3474C121.561 64.3017 120.38 67.0964 118.497 69.3982C116.614 71.6999 114.109 73.4115 111.281 74.329C115.997 79.8852 116.084 87.4972 112.17 91.9977C108.138 96.6464 101.57 96.0044 100.928 95.9303C103.212 100.326 102.928 105.456 100.212 108.777C96.5074 113.309 88.5806 114.105 82.8947 109.315C81.7649 110.364 71.5539 119.532 57.0398 116.988C42.8406 114.519 36.3584 102.888 35.5928 101.462C29.3143 109.907 17.35 110.555 10.9542 104.32C5.2683 98.7639 4.78059 88.5529 10.9542 81.6446C9.94169 80.9285 2.60749 75.4649 2.021 65.7601C1.85034 61.9119 2.72222 58.0891 4.54455 54.6954C6.36687 51.3018 9.07197 48.4634 12.3741 46.48C7.79946 41.6153 6.47832 34.8058 8.98479 29.3422C11.4542 23.9959 16.5968 22.0636 17.7327 21.6685C16.9437 19.3796 16.9363 16.8936 17.7116 14.6C18.4869 12.3064 20.0012 10.3348 22.0172 8.99415C23.7686 7.92059 25.7892 7.36737 27.8432 7.39907C29.8973 7.43077 31.8999 8.04609 33.6173 9.17318Z" fill="white" stroke="#262262" stroke-width="4" stroke-miterlimit="10"/>
<path d="M30.3885 32.9105C29.2239 33.8658 28.4044 35.1765 28.0556 36.6419C27.7067 38.1073 27.8478 39.6467 28.4571 41.0243C29.0664 42.4019 30.1104 43.5418 31.4293 44.2696C32.7481 44.9974 34.2692 45.2729 35.7595 45.0539C36.453 45.7585 37.3505 46.2271 38.3251 46.3933C39.2996 46.5595 40.3017 46.4148 41.1895 45.9798C42.0773 45.5448 42.8057 44.8415 43.2715 43.9696C43.7374 43.0976 43.9171 42.1011 43.7852 41.1214C45.452 43.8316 48.3968 44.8872 50.4773 43.9797C51.0501 43.6895 51.5585 43.2868 51.9722 42.7957C52.3859 42.3046 52.6963 41.7351 52.885 41.1214C53.4073 42.3241 54.3153 43.3186 55.4656 43.948C56.6159 44.5773 57.9431 44.8057 59.2376 44.5971C60.2606 44.3852 61.2072 43.9003 61.9767 43.1938C62.7463 42.4872 63.3102 41.5855 63.6085 40.5843C64.2903 42.121 65.537 43.3367 67.0904 43.9797C69.5598 44.9119 72.5169 44.0723 74.4986 41.8375C76.005 44.4983 79.0732 45.6342 81.5488 44.6959C82.4908 44.3032 83.3104 43.6656 83.9227 42.8493C84.535 42.0329 84.9175 41.0675 85.0307 40.0533C85.3674 40.4957 85.7915 40.864 86.2766 41.1354C86.7618 41.4068 87.2976 41.5753 87.8508 41.6306C88.4039 41.6859 88.9625 41.6267 89.4918 41.4568C90.0211 41.2868 90.5097 41.0097 90.9272 40.6427C91.3447 40.2757 91.6823 39.8267 91.9187 39.3236C92.1552 38.8205 92.2856 38.2742 92.3017 37.7185C92.3179 37.1628 92.2195 36.6098 92.0126 36.0938C91.8057 35.5779 91.4949 35.11 91.0994 34.7194" stroke="#262262" stroke-width="4" stroke-miterlimit="10"/>
<path d="M28.5365 41.1214C28.5365 41.1214 10.4171 85.0401 59.1512 85.571C107.885 86.102 91.1982 40.0533 91.1982 40.0533" stroke="#262262" stroke-width="4" stroke-miterlimit="10"/>
<path d="M59.8991 67.5621C61.3535 67.2894 62.4297 66.5195 62.3027 65.8426C62.1758 65.1657 60.8939 64.838 59.4395 65.1107C57.9851 65.3834 56.9089 66.1532 57.0359 66.8302C57.1628 67.5071 58.4447 67.8348 59.8991 67.5621Z" fill="#262262"/>
<path d="M47.903 63.3771H42.6369C41.0106 63.3771 39.6921 64.6955 39.6921 66.3219C39.6921 67.9482 41.0106 69.2667 42.6369 69.2667H47.903C49.5293 69.2667 50.8478 67.9482 50.8478 66.3219C50.8478 64.6955 49.5293 63.3771 47.903 63.3771Z" fill="#EE9CB0"/>
<path d="M76.4618 63.3771H71.1958C69.5694 63.3771 68.251 64.6955 68.251 66.3219C68.251 67.9482 69.5694 69.2667 71.1958 69.2667H76.4618C78.0882 69.2667 79.4066 67.9482 79.4066 66.3219C79.4066 64.6955 78.0882 63.3771 76.4618 63.3771Z" fill="#EE9CB0"/>
<path d="M41.5627 59.5556L48.971 55.3576L54.416 59.5556" stroke="#262262" stroke-width="4" stroke-miterlimit="10"/>
<path d="M64.0159 59.5556L71.4242 55.3576L76.8693 59.5556" stroke="#262262" stroke-width="4" stroke-miterlimit="10"/>
</svg>
